<?xml version="1.0" encoding="iso-8859-1"?>
<!-- Uploaded to: SVG Repo, www.svgrepo.com, Generator: SVG Repo Mixer Tools -->
<svg version="1.1" id="Layer_1" xmlns="http://www.w3.org/2000/svg" xmlns:xlink="http://www.w3.org/1999/xlink" 
	 viewBox="0 0 512 512" xml:space="preserve">
<rect x="50.486" y="409.324" style="fill:#8CC63F;" width="63.238" height="94.857"/>
<rect x="121.627" y="464.657" style="fill:#F15A24;" width="79.048" height="39.525"/>
<rect x="398.299" y="409.324" style="fill:#93278F;" width="63.238" height="94.857"/>
<rect x="311.351" y="464.657" style="fill:#ED1C24;" width="79.048" height="39.525"/>
<rect x="224.393" y="456.758" style="fill:#C69C6D;" width="63.238" height="47.429"/>
<rect x="224.393" y="456.758" style="fill:#8C6239;" width="23.715" height="47.429"/>
<polygon style="fill:#00A99D;" points="153.25,409.544 358.777,409.544 256.014,30.112 "/>
<circle style="fill:#FF1D25;" cx="256.019" cy="346.083" r="15.81"/>
<polygon style="fill:#337E79;" points="153.25,409.544 200.679,409.544 256.014,30.112 "/>
<polyline style="fill:#66CBC4;" points="256.206,30.112 319.252,409.544 359.162,409.544 "/>
<g>
	<circle style="fill:#FFFFFF;" cx="200.676" cy="282.852" r="15.81"/>
	<circle style="fill:#FFFFFF;" cx="287.634" cy="259.135" r="15.81"/>
	<circle style="fill:#FFFFFF;" cx="208.585" cy="195.893" r="15.81"/>
	<circle style="fill:#FFFFFF;" cx="279.725" cy="132.662" r="15.81"/>
</g>
<g>
	<circle style="fill:#FF1D25;" cx="248.11" cy="61.512" r="15.81"/>
	<circle style="fill:#FF1D25;" cx="208.585" cy="195.893" r="15.81"/>
</g>
<g>
	<circle style="fill:#FFFFFF;" cx="279.725" cy="132.662" r="15.81"/>
	<rect x="302.89" y="370.988" style="fill:#FFFFFF;" width="16.673" height="15.631"/>
</g>
<rect x="217.442" y="377.24" width="22.925" height="15.631"/>
<path d="M264.336,417.881h104.65l-72.609-268.479c4.307-4.282,6.976-10.207,6.976-16.745c0-10.945-7.481-20.171-17.597-22.843
	L256.015,0l-10.296,38.01c-11.908,1.201-21.235,11.284-21.235,23.504c0,7.825,3.826,14.77,9.705,19.071l-24.837,91.706
	c-0.255-0.008-0.51-0.02-0.766-0.02c-13.027,0-23.625,10.598-23.625,23.625c0,8.955,5.009,16.763,12.373,20.769l-13.592,49.75
	c-4.131,4.256-6.685,10.049-6.685,16.434c0,2.241,0.32,4.407,0.907,6.463l-0.143-0.039l-34.779,128.607h105.664v31.261h-31.261
	v62.523h77.111v-62.523h-30.219v-31.261H264.336z M299.451,220.647l6.321,23.373c-4.337-5.197-10.858-8.51-18.141-8.51
	c-13.027,0-23.625,10.598-23.625,23.625s10.599,23.625,23.625,23.625c11.686,0,21.413-8.532,23.292-19.693l9.194,33.997
	l-96.734-20.729c-2.721-9.465-11.205-16.512-21.394-17.072l4.658-17.199L299.451,220.647z M295.627,259.135
	c0,4.408-3.586,7.995-7.995,7.995c-4.408,0-7.995-3.586-7.995-7.995c0-4.409,3.586-7.995,7.995-7.995
	S295.627,254.726,295.627,259.135z M279.728,124.663c4.407,0,7.993,3.586,7.993,7.995c0,4.408-3.586,7.995-7.993,7.995
	c-4.408,0-7.996-3.586-7.996-7.995C271.733,128.249,275.32,124.663,279.728,124.663z M263.868,88.791l-18.758,11.255l4.045-14.935
	c4.66-0.204,8.97-1.767,12.551-4.298L263.868,88.791z M248.109,53.519c4.408,0,7.993,3.586,7.993,7.995
	c0,4.408-3.586,7.995-7.993,7.995c-4.408,0-7.995-3.586-7.995-7.995C240.115,57.105,243.701,53.519,248.109,53.519z
	 M239.216,121.812l28.899-17.34l1.814,6.697c-8.149,3.731-13.827,11.956-13.827,21.488c0,13.027,10.599,23.625,23.626,23.625
	c0.771,0,1.533-0.04,2.285-0.113l2.875,10.632l-51.642-22.952L239.216,121.812z M229.113,159.117l61.034,27.126l5.221,19.305
	l-84.085,19.405l1.578-5.826c10.991-2.018,19.35-11.664,19.35-23.229c0-7.142-3.19-13.549-8.214-17.885L229.113,159.117z
	 M208.585,187.902c4.408,0,7.995,3.586,7.995,7.995c0,4.408-3.586,7.994-7.995,7.994c-4.408,0-7.995-3.586-7.995-7.994
	C200.59,191.488,204.176,187.902,208.585,187.902z M200.68,274.855c4.408,0,7.995,3.586,7.995,7.995s-3.586,7.995-7.995,7.995
	c-4.409,0-7.995-3.586-7.995-7.995S196.271,274.855,200.68,274.855z M180.93,337.643h19.84v-15.631h-15.614l4.888-18.077
	c3.199,1.619,6.81,2.538,10.634,2.538c9.741,0,18.122-5.927,21.732-14.363l102.296,21.92l0.856,3.163l-49.857,15.863
	c-4.235-6.379-11.479-10.594-19.693-10.594c-13.027,0-23.625,10.598-23.625,23.625c0,0.25,0.011,0.498,0.019,0.747l-59.042,18.786
	L180.93,337.643z M264.007,346.088c0,4.408-3.586,7.995-7.993,7.995c-4.408,0-7.995-3.586-7.995-7.995s3.586-7.995,7.995-7.995
	C260.421,338.094,264.007,341.68,264.007,346.088z M163.46,402.25l5.052-18.682l69.563-22.133c4.336,5.061,10.767,8.278,17.94,8.278
	c12.3,0,22.429-9.45,23.521-21.47l50.112-15.945l6.237,23.06h-16.32v15.631h20.547l8.455,31.261H163.46z M278.925,464.773v31.261
	h-45.85v-31.261H278.925z"/>
<g>
	<rect x="224.737" y="243.859" style="fill:#FFFFFF;" width="15.631" height="15.631"/>
	<rect x="224.737" y="308.465" style="fill:#FFFFFF;" width="15.631" height="15.631"/>
	<rect x="247.662" y="180.294" style="fill:#FFFFFF;" width="16.673" height="15.631"/>
</g>
<rect x="341.445" y="432.468" width="17.715" height="15.631"/>
<g>
	<rect x="367.496" y="432.468" style="fill:#FF1D25;" width="15.631" height="15.631"/>
	<rect x="319.562" y="432.468" style="fill:#FF1D25;" width="16.673" height="15.631"/>
</g>
<rect x="152.836" y="432.468" width="17.715" height="15.631"/>
<g>
	<rect x="175.761" y="432.468" style="fill:#F15A24;" width="16.673" height="15.631"/>
	<rect x="128.869" y="432.468" style="fill:#F15A24;" width="16.673" height="15.631"/>
</g>
<rect x="73.641" y="377.24" width="16.673" height="15.631"/>
<g>
	<rect x="97.608" y="377.24" style="fill:#8CC63F;" width="22.925" height="15.631"/>
	<rect x="43.423" y="377.24" style="fill:#8CC63F;" width="21.883" height="15.631"/>
</g>
<path d="M303.532,512h94.679v-55.155h-94.679V512z M382.58,496.369h-23.833l-0.041-23.894h23.873V496.369z M319.162,472.476h23.914
	l0.041,23.894h-23.954V472.476z"/>
<path d="M113.815,512h94.679v-55.155h-94.679C113.815,456.845,113.815,512,113.815,512z M192.865,496.369h-23.841l-0.04-23.894
	h23.88L192.865,496.369L192.865,496.369z M129.446,472.476h23.907l0.04,23.894h-23.947v-23.894H129.446z"/>
<path d="M122.619,449.142v-31.261h6.252V402.25H35.087v15.631h8.336v93.784h62.523v-15.631H90.315v-78.153h16.673v31.261H122.619z
	 M74.685,496.034H59.054v-78.153h15.631V496.034z"/>
<path d="M476.913,402.25h-93.784v15.631h6.252v31.261h15.631v-31.261h16.673v78.153h-15.631v15.631h62.523v-93.784h8.336V402.25z
	 M452.946,496.034h-15.631v-78.153h15.631V496.034z"/>
<rect x="421.683" y="377.24" width="16.673" height="15.631"/>
<g>
	<rect x="391.463" y="377.24" style="fill:#93278F;" width="22.925" height="15.631"/>
	<rect x="446.692" y="377.24" style="fill:#93278F;" width="21.883" height="15.631"/>
</g>
</svg>